<svg width="312" height="126" viewBox="0 0 312 126" fill="none" xmlns="http://www.w3.org/2000/svg">
<path d="M288.346 94.9774H292.979V99.0959C294.352 97.3979 295.806 96.1786 297.342 95.438C298.877 94.6974 300.584 94.3271 302.462 94.3271C306.581 94.3271 309.363 95.7632 310.808 98.6353C311.603 100.207 312 102.456 312 105.382V123.996H307.042V105.707C307.042 103.937 306.78 102.51 306.256 101.426C305.389 99.6197 303.817 98.7166 301.541 98.7166C300.385 98.7166 299.437 98.834 298.696 99.0688C297.36 99.4662 296.185 100.261 295.174 101.453C294.361 102.411 293.828 103.404 293.575 104.434C293.34 105.445 293.223 106.899 293.223 108.796V123.996H288.346V94.9774Z" fill="#505A5F"/>
<path d="M261.197 116.274C261.197 117.683 261.711 118.794 262.741 119.606C263.771 120.419 264.99 120.826 266.399 120.826C268.115 120.826 269.777 120.428 271.384 119.633C274.094 118.315 275.449 116.156 275.449 113.158V109.229C274.853 109.608 274.085 109.924 273.146 110.177C272.206 110.43 271.285 110.611 270.382 110.719L267.429 111.099C265.658 111.333 264.331 111.704 263.446 112.209C261.946 113.058 261.197 114.413 261.197 116.274ZM273.01 106.411C274.13 106.267 274.88 105.797 275.259 105.002C275.476 104.569 275.584 103.945 275.584 103.133C275.584 101.471 274.988 100.27 273.796 99.5289C272.622 98.7702 270.933 98.3909 268.729 98.3909C266.182 98.3909 264.376 99.0773 263.31 100.45C262.714 101.209 262.326 102.338 262.145 103.837H257.593C257.683 100.26 258.839 97.7768 261.061 96.3859C263.301 94.9769 265.893 94.2725 268.837 94.2725C272.251 94.2725 275.024 94.9227 277.156 96.2233C279.269 97.5239 280.326 99.547 280.326 102.293V119.01C280.326 119.516 280.425 119.922 280.624 120.23C280.841 120.537 281.283 120.69 281.952 120.69C282.168 120.69 282.412 120.681 282.683 120.663C282.954 120.627 283.243 120.582 283.55 120.528V124.131C282.791 124.348 282.213 124.483 281.816 124.538C281.419 124.592 280.877 124.619 280.19 124.619C278.51 124.619 277.291 124.023 276.532 122.831C276.135 122.198 275.855 121.304 275.693 120.148C274.699 121.449 273.272 122.578 271.412 123.535C269.551 124.493 267.501 124.971 265.261 124.971C262.569 124.971 260.366 124.158 258.65 122.533C256.952 120.889 256.103 118.839 256.103 116.382C256.103 113.691 256.943 111.604 258.623 110.123C260.303 108.642 262.506 107.73 265.234 107.386L273.01 106.411Z" fill="#505A5F"/>
<path d="M211.233 94.9774H216.056V99.0959C217.212 97.6689 218.26 96.6302 219.199 95.9799C220.807 94.8781 222.631 94.3271 224.673 94.3271C226.985 94.3271 228.845 94.8961 230.254 96.0341C231.049 96.6844 231.771 97.6418 232.422 98.9062C233.506 97.3528 234.779 96.2057 236.242 95.4651C237.705 94.7065 239.349 94.3271 241.173 94.3271C245.075 94.3271 247.73 95.7361 249.139 98.554C249.898 100.071 250.277 102.112 250.277 104.677V123.996H245.211V103.838C245.211 101.905 244.723 100.577 243.748 99.8545C242.79 99.132 241.616 98.7707 240.225 98.7707C238.31 98.7707 236.658 99.412 235.267 100.694C233.894 101.977 233.208 104.118 233.208 107.116V123.996H228.249V105.057C228.249 103.088 228.014 101.652 227.545 100.749C226.804 99.3939 225.422 98.7166 223.399 98.7166C221.557 98.7166 219.877 99.4301 218.359 100.857C216.86 102.284 216.111 104.867 216.111 108.606V123.996H211.233V94.9774Z" fill="#505A5F"/>
<path d="M186.387 114.892C186.532 116.518 186.938 117.764 187.606 118.631C188.835 120.203 190.966 120.989 194.001 120.989C195.807 120.989 197.397 120.6 198.77 119.824C200.142 119.029 200.829 117.81 200.829 116.166C200.829 114.919 200.278 113.971 199.176 113.321C198.472 112.923 197.081 112.463 195.003 111.939L191.129 110.964C188.654 110.349 186.83 109.663 185.656 108.904C183.56 107.586 182.513 105.761 182.513 103.431C182.513 100.685 183.497 98.4636 185.466 96.7657C187.453 95.0677 190.117 94.2188 193.459 94.2188C197.83 94.2188 200.982 95.5013 202.915 98.0663C204.125 99.692 204.712 101.444 204.676 103.323H200.07C199.98 102.221 199.592 101.218 198.905 100.315C197.785 99.0326 195.843 98.3914 193.08 98.3914C191.237 98.3914 189.837 98.7436 188.88 99.4481C187.941 100.153 187.471 101.083 187.471 102.239C187.471 103.503 188.094 104.515 189.341 105.274C190.063 105.725 191.129 106.123 192.538 106.466L195.762 107.251C199.266 108.1 201.615 108.922 202.807 109.717C204.703 110.964 205.652 112.923 205.652 115.597C205.652 118.18 204.667 120.411 202.698 122.289C200.748 124.168 197.767 125.107 193.757 125.107C189.44 125.107 186.378 124.132 184.572 122.181C182.784 120.212 181.826 117.782 181.7 114.892H186.387Z" fill="#505A5F"/>
<path d="M155.688 109.825C155.688 112.932 156.348 115.533 157.666 117.628C158.985 119.724 161.098 120.771 164.007 120.771C166.264 120.771 168.116 119.805 169.561 117.872C171.024 115.921 171.756 113.131 171.756 109.5C171.756 105.833 171.006 103.124 169.507 101.371C168.008 99.6012 166.156 98.7161 163.952 98.7161C161.496 98.7161 159.5 99.6554 157.964 101.534C156.447 103.413 155.688 106.176 155.688 109.825ZM163.031 94.4621C165.253 94.4621 167.113 94.9318 168.613 95.8711C169.48 96.413 170.464 97.3613 171.566 98.7161V84.0576H176.254V123.996H171.864V119.959C170.726 121.747 169.38 123.038 167.827 123.833C166.274 124.628 164.494 125.025 162.489 125.025C159.256 125.025 156.456 123.671 154.09 120.961C151.723 118.234 150.54 114.612 150.54 110.096C150.54 105.869 151.615 102.211 153.765 99.1225C155.932 96.0156 159.021 94.4621 163.031 94.4621Z" fill="#505A5F"/>
<path d="M126.588 94.9775V114.242C126.588 115.723 126.823 116.934 127.293 117.873C128.16 119.607 129.776 120.474 132.143 120.474C135.539 120.474 137.851 118.957 139.079 115.922C139.747 114.296 140.082 112.066 140.082 109.23V94.9775H144.959V123.996H140.353L140.407 119.715C139.775 120.817 138.989 121.747 138.05 122.506C136.189 124.023 133.931 124.782 131.276 124.782C127.139 124.782 124.321 123.4 122.822 120.637C122.009 119.155 121.603 117.177 121.603 114.703V94.9775H126.588Z" fill="#505A5F"/>
<path d="M90.4434 84.0576H95.185V98.4993C96.2507 97.1084 97.5242 96.0517 99.0054 95.3292C100.487 94.5886 102.094 94.2183 103.828 94.2183C107.441 94.2183 110.367 95.4647 112.607 97.9574C114.865 100.432 115.994 104.09 115.994 108.931C115.994 113.519 114.883 117.33 112.661 120.365C110.44 123.4 107.36 124.917 103.422 124.917C101.218 124.917 99.3576 124.384 97.8403 123.318C96.9371 122.686 95.9708 121.675 94.9411 120.284V123.996H90.4434V84.0576ZM103.124 120.609C105.761 120.609 107.73 119.561 109.031 117.466C110.349 115.371 111.009 112.607 111.009 109.175C111.009 106.122 110.349 103.593 109.031 101.588C107.73 99.5831 105.806 98.5806 103.259 98.5806C101.038 98.5806 99.0867 99.4025 97.4068 101.046C95.745 102.69 94.914 105.4 94.914 109.175C94.914 111.902 95.2573 114.115 95.9437 115.813C97.2262 119.01 99.6196 120.609 103.124 120.609Z" fill="#505A5F"/>
<path d="M44.5986 94.9774H49.4216V99.0959C50.5776 97.6689 51.6253 96.6302 52.5646 95.9799C54.1722 94.8781 55.9966 94.3271 58.0378 94.3271C60.3499 94.3271 62.2104 94.8961 63.6194 96.0341C64.4142 96.6844 65.1367 97.6418 65.787 98.9062C66.8708 97.3528 68.1443 96.2057 69.6074 95.4651C71.0705 94.7065 72.7143 94.3271 74.5387 94.3271C78.4404 94.3271 81.0957 95.7361 82.5047 98.554C83.2633 100.071 83.6427 102.112 83.6427 104.677V123.996H78.5759V103.838C78.5759 101.905 78.0882 100.577 77.1127 99.8545C76.1554 99.132 74.9813 98.7707 73.5904 98.7707C71.6757 98.7707 70.0229 99.412 68.632 100.694C67.2592 101.977 66.5728 104.118 66.5728 107.116V123.996H61.6144V105.057C61.6144 103.088 61.3795 101.652 60.9099 100.749C60.1693 99.3939 58.7874 98.7166 56.7643 98.7166C54.9219 98.7166 53.242 99.4301 51.7246 100.857C50.2254 102.284 49.4757 104.867 49.4757 108.606V123.996H44.5986V94.9774Z" fill="#505A5F"/>
<path d="M19.2375 83.1094C26.2642 83.1094 31.4664 85.3673 34.8443 89.8831C37.4815 93.4055 38.8002 97.9123 38.8002 103.404C38.8002 109.346 37.2919 114.287 34.2753 118.225C30.7349 122.849 25.6861 125.161 19.1291 125.161C13.0056 125.161 8.19175 123.138 4.68745 119.092C1.56248 115.19 0 110.259 0 104.298C0 98.9148 1.33669 94.3087 4.01007 90.4792C7.44212 85.566 12.5179 83.1094 19.2375 83.1094ZM19.7794 120.338C24.5301 120.338 27.9621 118.64 30.0756 115.244C32.207 111.83 33.2728 107.91 33.2728 103.485C33.2728 98.8065 32.0445 95.0402 29.5878 92.1862C27.1493 89.3322 23.8076 87.9052 19.5627 87.9052C15.4442 87.9052 12.0844 89.3232 9.48328 92.1591C6.88215 94.977 5.58159 99.1406 5.58159 104.65C5.58159 109.057 6.69249 112.779 8.91429 115.813C11.1541 118.83 14.7759 120.338 19.7794 120.338Z" fill="#505A5F"/>
<path d="M164.603 27.8628L175.486 30.6175C180.242 31.8217 183.69 33.4323 185.827 35.4494C189.139 38.5804 190.162 43.1113 188.898 49.0421C187.603 55.1235 184.201 60.1812 178.692 64.2154C173.183 68.2194 166.183 70.2215 157.693 70.2215C149.023 70.2215 142.625 68.2495 138.501 64.3057C134.376 60.3317 133.052 54.8826 134.527 47.9583H147.804C147.593 50.999 147.939 53.272 148.842 54.7772C150.528 57.5169 154.111 58.8867 159.59 58.8867C162.872 58.8867 165.611 58.5254 167.809 57.8029C171.994 56.418 174.477 53.844 175.26 50.0808C175.742 47.8831 175.14 46.1821 173.454 44.9779C171.798 43.8037 168.998 42.7651 165.054 41.8619L158.326 40.2814C151.732 38.7159 147.307 37.0149 145.049 35.1785C141.226 32.1077 140.006 27.3058 141.391 20.7729C142.656 14.812 145.877 9.8596 151.055 5.91576C156.233 1.97192 163.022 0 171.422 0C178.436 0 184.021 1.86655 188.175 5.59965C192.33 9.30265 193.775 14.6916 192.511 21.7664H179.144C179.776 17.7623 178.647 14.9174 175.757 13.2314C173.83 12.1175 171.256 11.5606 168.035 11.5606C164.452 11.5606 161.426 12.2831 158.958 13.7282C156.519 15.1733 155.029 17.1903 154.487 19.7794C153.975 22.1578 154.653 23.934 156.519 25.1081C157.693 25.8909 160.388 26.8091 164.603 27.8628Z" fill="#003078"/>
<path d="M106.935 64.9375C106.965 63.0709 107.176 61.1592 107.567 59.2024L108.787 53.0157C109.63 48.7708 109.449 45.9408 108.245 44.5259C107.071 43.1109 104.436 42.4034 100.342 42.4034H85.9817L80.4723 68.505H66.8796L81.0142 1.94141H113.664C118.3 2.03172 121.762 2.60373 124.05 3.65743C126.338 4.71113 128.145 6.26157 129.469 8.30875C130.553 9.99467 131.291 11.8612 131.682 13.9084C132.104 15.9556 132.043 18.2888 131.501 20.908C130.809 24.0691 129.334 27.185 127.076 30.2558C124.848 33.2965 121.762 35.449 117.818 36.7134C120.618 37.9478 122.41 39.709 123.192 41.997C124.005 44.2549 123.915 47.7171 122.921 52.3834L121.973 56.8541C121.341 59.8948 121.025 61.957 121.025 63.0408C121.025 64.7569 121.597 66.0213 122.741 66.8342L122.425 68.505H107.116C106.995 67.0298 106.935 65.8407 106.935 64.9375ZM108.29 13.502H92.1232L88.3299 31.3847H104.09C107.221 31.3847 109.645 31.0235 111.361 30.3009C114.401 29.0365 116.328 26.5377 117.141 22.8046C117.984 18.7705 117.216 16.061 114.838 14.6761C113.483 13.8934 111.301 13.502 108.29 13.502Z" fill="#003078"/>
<path d="M63.2218 7.08947C66.4431 10.5215 67.3011 15.8352 65.7958 23.0304C64.1099 30.888 60.9337 36.4425 56.2674 39.6939C51.601 42.9453 45.5799 44.571 38.204 44.571H24.0694L19.0116 68.505H5.19312L19.3277 1.94141H48.3195C55.0029 1.94141 59.9704 3.65743 63.2218 7.08947ZM43.623 13.502H30.6625L26.5079 33.1008H39.4684C42.7499 33.1008 45.4745 32.303 47.6421 30.7074C49.8097 29.1118 51.2548 26.5829 51.9773 23.1207C52.7299 19.6586 52.3386 17.1899 50.8032 15.7147C49.2979 14.2396 46.9045 13.502 43.623 13.502Z" fill="#003078"/>
</svg>
